<svg xmlns="http://www.w3.org/2000/svg" xmlns:xlink="http://www.w3.org/1999/xlink" viewBox="0 0 659.9 403.6"><defs><style>.cls-1{fill:none;}.cls-2{isolation:isolate;}.cls-3{clip-path:url(#clip-path);}.cls-4{fill:url(#åçûìßííûé_ãðàäèåíò_8);}.cls-5{fill:url(#åçûìßííûé_ãðàäèåíò_127);}.cls-6{fill:#a85667;}.cls-7{fill:url(#åçûìßííûé_ãðàäèåíò_127-2);}.cls-8{fill:#802634;}.cls-9{fill:url(#åçûìßííûé_ãðàäèåíò_83);}.cls-10{fill:url(#åçûìßííûé_ãðàäèåíò_83-2);}.cls-11,.cls-13{fill:#ab1535;}.cls-11,.cls-79,.cls-80{opacity:0.5;}.cls-11,.cls-13,.cls-16,.cls-25,.cls-27,.cls-28,.cls-33{mix-blend-mode:multiply;}.cls-12{fill:#e0a426;}.cls-13,.cls-26,.cls-27{opacity:0.4;}.cls-14,.cls-31{fill:#fff7cc;}.cls-14{opacity:0.65;}.cls-14,.cls-26{mix-blend-mode:overlay;}.cls-15{fill:#b86053;}.cls-16{fill:#6b0a47;}.cls-16,.cls-28,.cls-33{opacity:0.3;}.cls-17{fill:url(#åçûìßííûé_ãðàäèåíò_128);}.cls-18{fill:#65a0a8;}.cls-19{fill:url(#åçûìßííûé_ãðàäèåíò_128-2);}.cls-20{fill:url(#åçûìßííûé_ãðàäèåíò_83-3);}.cls-21{fill:url(#åçûìßííûé_ãðàäèåíò_83-4);}.cls-22{fill:url(#åçûìßííûé_ãðàäèåíò_15);}.cls-23{fill:#b71318;}.cls-24{fill:url(#åçûìßííûé_ãðàäèåíò_15-2);}.cls-25{opacity:0.75;fill:url(#åçûìßííûé_ãðàäèåíò_11);}.cls-26{fill:#ffffc1;}.cls-27,.cls-28{fill:#5f2e0d;}.cls-29{fill:#305575;}.cls-30{fill:#4a869a;}.cls-32{fill:url(#åçûìßííûé_ãðàäèåíò_83-5);}.cls-33{fill:#e8a699;}.cls-34,.cls-53{fill:#fff;}.cls-35,.cls-37{fill:#43703a;}.cls-36,.cls-38{fill:#80b975;}.cls-36,.cls-37,.cls-39,.cls-40,.cls-41,.cls-42,.cls-43,.cls-44,.cls-45,.cls-46,.cls-47,.cls-48,.cls-49,.cls-50,.cls-51,.cls-53,.cls-54,.cls-55,.cls-56,.cls-58,.cls-59,.cls-60,.cls-61,.cls-62,.cls-63,.cls-64,.cls-65,.cls-66,.cls-67{fill-rule:evenodd;}.cls-39{fill:#183257;}.cls-40{fill:#111a39;}.cls-41{fill:#f4ad85;}.cls-42{fill:#ed9072;}.cls-43{fill:#294264;}.cls-44{fill:#14294c;}.cls-45{fill:#d9d4d6;}.cls-46,.cls-57{fill:#f5f4f4;}.cls-47{fill:#eb6b5d;}.cls-48{fill:#d64341;}.cls-49{fill:#14274b;}.cls-50,.cls-52{fill:#050a25;}.cls-51{fill:#e37b64;}.cls-54{fill:#496683;}.cls-55{fill:#f7dbcc;}.cls-56{fill:#d1ae9d;}.cls-58{fill:#959cab;}.cls-59{fill:#f0957c;}.cls-60{fill:#444;}.cls-61{fill:#353535;}.cls-62{fill:#333;}.cls-63{fill:#4b4e54;}.cls-64{fill:#756413;}.cls-65{fill:#b58100;}.cls-66{fill:#966400;}.cls-67{fill:#250c07;}.cls-68{fill:#ffa800;}.cls-69{fill:#f4463d;}.cls-70{fill:#414246;}.cls-71{fill:#ff6d69;}.cls-72{fill:#f9b52b;}.cls-73{fill:#27282b;}.cls-74{fill:#c0edff;}.cls-75,.cls-79{fill:#92d5ea;}.cls-76{fill:#ad153a;}.cls-77{fill:#bfc4d8;}.cls-78{fill:#f1f2f8;}.cls-81{clip-path:url(#clip-path-2);}</style><clipPath id="clip-path"><rect class="cls-1" x="-122.03" y="10.81" width="608.44" height="380.28"/></clipPath><linearGradient id="åçûìßííûé_ãðàäèåíò_8" x1="217.6" y1="347.67" x2="217.6" y2="243.73" gradientUnits="userSpaceOnUse"><stop offset="0" stop-color="#e0c59a"/><stop offset="1" stop-color="#519ab3"/></linearGradient><linearGradient id="åçûìßííûé_ãðàäèåíò_127" x1="-38.13" y1="311.61" x2="33.49" y2="125.27" gradientUnits="userSpaceOnUse"><stop offset="0" stop-color="#f5d6a3"/><stop offset="0.14" stop-color="#f0ce9f"/><stop offset="0.36" stop-color="#e2b795"/><stop offset="0.63" stop-color="#cc9283"/><stop offset="0.95" stop-color="#ae606c"/><stop offset="1" stop-color="#a85667"/></linearGradient><linearGradient id="åçûìßííûé_ãðàäèåíò_127-2" x1="192.65" y1="307.11" x2="192.65" y2="75.05" xlink:href="#åçûìßííûé_ãðàäèåíò_127"/><linearGradient id="åçûìßííûé_ãðàäèåíò_83" x1="134.89" y1="286.83" x2="134.89" y2="128.68" gradientUnits="userSpaceOnUse"><stop offset="0.22" stop-color="#ffefbc"/><stop offset="0.43" stop-color="#fae0b5"/><stop offset="0.83" stop-color="#eeb9a2"/><stop offset="1" stop-color="#e8a699"/></linearGradient><linearGradient id="åçûìßííûé_ãðàäèåíò_83-2" x1="134.89" y1="281.52" x2="134.89" y2="121.92" xlink:href="#åçûìßííûé_ãðàäèåíò_83"/><linearGradient id="åçûìßííûé_ãðàäèåíò_128" x1="-50.01" y1="312.66" x2="48.23" y2="105.4" gradientUnits="userSpaceOnUse"><stop offset="0" stop-color="#f5d6a3"/><stop offset="0.13" stop-color="#edd3a3"/><stop offset="0.33" stop-color="#d6caa4"/><stop offset="0.58" stop-color="#b1bda5"/><stop offset="0.87" stop-color="#7faaa7"/><stop offset="1" stop-color="#65a0a8"/></linearGradient><linearGradient id="åçûìßííûé_ãðàäèåíò_128-2" x1="192.65" y1="307.11" x2="192.65" y2="75.05" xlink:href="#åçûìßííûé_ãðàäèåíò_128"/><linearGradient id="åçûìßííûé_ãðàäèåíò_83-3" x1="100.32" y1="286.83" x2="100.32" y2="128.68" xlink:href="#åçûìßííûé_ãðàäèåíò_83"/><linearGradient id="åçûìßííûé_ãðàäèåíò_83-4" x1="100.32" y1="281.52" x2="100.32" y2="121.92" xlink:href="#åçûìßííûé_ãðàäèåíò_83"/><linearGradient id="åçûìßííûé_ãðàäèåíò_15" x1="-125.6" y1="235.1" x2="-76.16" y2="310.71" gradientTransform="matrix(1, 0, 0.02, 1, 291.77, 0)" gradientUnits="userSpaceOnUse"><stop offset="0" stop-color="#ef7c4f"/><stop offset="1" stop-color="#b71318"/></linearGradient><linearGradient id="åçûìßííûé_ãðàäèåíò_15-2" x1="-109.46" y1="247.35" x2="-120.06" y2="258.61" xlink:href="#åçûìßííûé_ãðàäèåíò_15"/><linearGradient id="åçûìßííûé_ãðàäèåíò_11" x1="-93.36" y1="292.61" x2="-103.24" y2="270.61" gradientTransform="matrix(1, 0, 0.02, 1, 291.77, 0)" gradientUnits="userSpaceOnUse"><stop offset="0" stop-color="#ef7c4f"/><stop offset="1" stop-color="#a61318"/></linearGradient><linearGradient id="åçûìßííûé_ãðàäèåíò_83-5" x1="-67.87" y1="69.16" x2="454.12" y2="69.16" xlink:href="#åçûìßííûé_ãðàäèåíò_83"/><clipPath id="clip-path-2"><path class="cls-1" d="M355.42,220c-3.1-6.58-8.34-13.66-11.33-17.47a9,9,0,0,0-5.74-3.36c-33.51-5.18-57.67-5.45-65.41-5.38s-31.9.2-65.41,5.38a9,9,0,0,0-5.74,3.36c-3,3.81-8.23,10.89-11.33,17.47-4.54,9.61-15,24.82.26,24.82H355.16C370.37,244.83,360,229.62,355.42,220Z"/></clipPath></defs><title>header_Used</title><g class="cls-2"><g id="Layer_1" data-name="Layer 1"><g class="cls-3"><polygon class="cls-4" points="1.07 339.43 434.13 339.43 369.48 288.1 20.26 288.1 1.07 299.56 1.07 339.43"/><polygon class="cls-5" points="1.07 299.56 20.26 288.1 13.45 87.82 1.07 81.21 1.07 299.56"/><polygon class="cls-6" points="369.48 288.1 371.86 90.67 466.93 48.36 434.13 339.43 369.48 288.1"/><polygon class="cls-7" points="13.45 87.82 371.86 90.67 369.48 288.1 20.26 288.1 13.45 87.82"/><polygon class="cls-8" points="1.07 40.24 1.07 81.21 13.45 87.82 371.86 90.67 466.93 48.36 1.07 40.24"/><polygon class="cls-9" points="163.24 288.1 106.55 288.1 103.37 136.94 166.41 137.85 163.24 288.1"/><polygon class="cls-10" points="109.47 288.1 108.22 141.76 161.56 142.53 159.38 288.1 109.47 288.1"/><path class="cls-11" d="M157.94,224.83c0,1.53-1.17,3.31-2.7,3.31s-2.76-.77-2.76-2.3,1.24-3.22,2.76-3.22S157.94,223.31,157.94,224.83Z"/><path class="cls-12" d="M158.2,223.47c0,1.52-1.16,3.31-2.69,3.31s-2.76-.78-2.76-2.3,1.23-3.23,2.76-3.23S158.2,221.94,158.2,223.47Z"/><path class="cls-13" d="M157.59,222.44a1.68,1.68,0,0,1,.06.47c0,1.18-.93,2.62-2.08,2.62s-2.14-.46-2.14-1.73a2.74,2.74,0,0,1,.3-1.17,3.22,3.22,0,0,0-.65,1.85c0,1.45,1.26,2,2.43,2s2.36-1.63,2.36-3A1.82,1.82,0,0,0,157.59,222.44Z"/><path class="cls-14" d="M156.52,222.41c0,.58-.45,1.26-1,1.26s-1.06-.29-1.06-.88a1.23,1.23,0,0,1,1.06-1.23C156.07,221.56,156.52,221.83,156.52,222.41Z"/><path class="cls-15" d="M161.56,142.17l-53.33-.77h-.37v.36l.62,73.17c.12,12.2.16,24.39.36,36.58l.62,36.59V251.51c0-12.2-.18-24.39-.26-36.59l-.62-72.8,52.61.76-1.08,72.43c-.16,12.13-.42,24.26-.49,36.39l-.24,36.4.84-36.39c.3-12.13.4-24.26.6-36.39l1.09-72.78v-.36Z"/><path class="cls-16" d="M154.87,150.53l-40.28-1h-.5V150l1,70.42v.33h.34l38.6-.14L155.33,151v-.47Zm-1.25,69.72-37.88-.14-.68-69.6,39.32,1Z"/><path class="cls-16" d="M153.82,228.61H115.64v.48l.93,51.44v.34h.33l36.27-.17,1.1-51.61v-.48Zm-1,51.75-35.6-.17-.65-50.63h36.74Z"/><polygon class="cls-4" points="1.07 339.43 434.13 339.43 369.48 288.1 20.26 288.1 1.07 299.56 1.07 339.43"/><polygon class="cls-17" points="1.07 299.56 20.26 288.1 13.45 87.82 1.07 81.21 1.07 299.56"/><polygon class="cls-18" points="369.48 288.1 371.86 90.67 466.93 48.36 434.13 339.43 369.48 288.1"/><polygon class="cls-19" points="13.45 87.82 371.86 90.67 369.48 288.1 20.26 288.1 13.45 87.82"/><polygon class="cls-8" points="1.07 40.24 1.07 81.21 13.45 87.82 371.86 90.67 466.93 48.36 1.07 40.24"/><polygon class="cls-20" points="128.68 288.1 71.99 288.1 68.8 136.94 131.84 137.85 128.68 288.1"/><polygon class="cls-21" points="74.9 288.1 73.66 141.76 126.99 142.53 124.81 288.1 74.9 288.1"/><path class="cls-11" d="M123.37,224.83c0,1.53-1.17,3.31-2.69,3.31s-2.76-.77-2.76-2.3,1.23-3.22,2.76-3.22S123.37,223.31,123.37,224.83Z"/><path class="cls-12" d="M123.64,223.47c0,1.52-1.17,3.31-2.69,3.31s-2.77-.78-2.77-2.3,1.24-3.23,2.77-3.23S123.64,221.94,123.64,223.47Z"/><path class="cls-13" d="M123,222.44a1.68,1.68,0,0,1,.06.47c0,1.18-.92,2.62-2.07,2.62s-2.14-.46-2.14-1.73a2.61,2.61,0,0,1,.3-1.17,3.22,3.22,0,0,0-.65,1.85c0,1.45,1.25,2,2.43,2s2.36-1.63,2.36-3A1.75,1.75,0,0,0,123,222.44Z"/><path class="cls-14" d="M122,222.41c0,.58-.44,1.26-1,1.26s-1-.29-1-.88a1.22,1.22,0,0,1,1-1.23C121.51,221.56,122,221.83,122,222.41Z"/><path class="cls-15" d="M127,142.17l-53.34-.77H73.3v.36l.62,73.17c.13,12.2.16,24.39.36,36.58l.62,36.59V251.51c0-12.2-.18-24.39-.26-36.59L74,142.12l52.61.76-1.08,72.43c-.16,12.13-.42,24.26-.49,36.39l-.25,36.4.85-36.39c.29-12.13.39-24.26.6-36.39l1.09-72.78v-.36Z"/><path class="cls-16" d="M120.3,150.53l-40.28-1h-.49V150l1,70.42v.33h.33l38.6-.14L120.77,151v-.47Zm-1.24,69.72-37.88-.14-.69-69.6,39.32,1Z"/><path class="cls-16" d="M119.25,228.61H81.07v.48L82,280.53v.34h.33l36.27-.17,1.11-51.61v-.48Zm-1,51.75-35.6-.17L82,229.56h36.73Z"/><path class="cls-22" d="M192.91,247.88H215.8l3.87,6a452.2,452.2,0,0,1,.85,45.63l-3.75,5.16H181.18l-3.35-4.33a278.38,278.38,0,0,1-.67-35.88Zm3.78,4,3.7,7.55h16l-.35-5.34-2.7-3.41H196.66Z"/><polygon class="cls-23" points="182.29 259.03 179.61 257.6 187.22 249.54 188.84 252.15 182.29 259.03"/><polygon class="cls-24" points="176.09 256.78 185.66 245.96 188.4 248.6 178.81 258.51 176.09 256.78"/><path class="cls-25" d="M211.32,295.15a1.21,1.21,0,0,1-.83-.34l-4.9-4.81h-13.2l-4.72,4.81a1.16,1.16,0,0,1-1.66-1.63l4.71-4.81-.24-13.21-4.9-4.81a1.14,1.14,0,1,1,1.6-1.63l4.9,4.81h13.2l4.72-4.81a1.16,1.16,0,0,1,1.64,0,1.15,1.15,0,0,1,0,1.63L207,275.16l.25,13.21,4.9,4.81a1.16,1.16,0,0,1,0,1.63A1.18,1.18,0,0,1,211.32,295.15ZM193,287.69h11.85l-.22-11.86H192.8Z"/><path class="cls-26" d="M178.61,298.32a323.75,323.75,0,0,1-.63-33.58l15.2-16.31h21.93l3.48,4.26-4-3.58-19.75.47-15,16.38Z"/><polygon class="cls-27" points="199.85 259.42 196.47 252.23 196.43 250.45 213.35 250.27 216.25 253.52 213.91 249.77 195.27 249.95 195.06 252.23 199.85 259.42"/><polygon class="cls-26" points="200.5 259.83 216.84 259.83 216.73 253.63 217.79 260.26 216.79 260.77 200.5 259.83"/><polygon class="cls-27" points="219.43 261.73 220.1 297.61 216.27 303.57 182.61 303.96 179.18 300.3 184.31 302.2 214.09 300.39 217.78 296.74 219.43 261.73"/><polygon class="cls-26" points="204.02 276.26 193.49 276.26 193.68 286.45 194.31 277.72 204.02 276.26"/><polygon class="cls-28" points="204.05 277.8 204.22 286.45 194.48 286.81 202.68 285.59 204.05 277.8"/><polygon class="cls-28" points="179.61 257.6 187.36 249.77 188.36 251.38 181.04 258.36 179.61 257.6"/><polygon class="cls-28" points="176.78 256.6 178.65 257.79 182.17 254.4 180.24 255.56 178.51 254.99 176.78 256.6"/><polygon class="cls-26" points="185.6 246.53 182.1 250.67 184.44 248.77 186.24 249.77 185.98 250.48 187.87 248.6 185.6 246.53"/><polygon class="cls-29" points="54.94 106.17 53.11 106.17 52.55 62.59 55.5 62.59 54.94 106.17"/><polygon class="cls-29" points="120.97 106.17 119.13 106.17 118.57 62.59 121.52 62.59 120.97 106.17"/><polygon class="cls-29" points="130.71 115.87 43.16 115.87 47.44 106.17 126.44 106.17 130.71 115.87"/><polygon class="cls-30" points="47.44 106.17 59.53 106.17 63.57 115.87 43.16 115.87 47.44 106.17"/><polygon class="cls-29" points="241.94 106.17 240.1 106.17 239.54 62.59 242.5 62.59 241.94 106.17"/><polygon class="cls-29" points="307.96 106.17 306.12 106.17 305.56 62.59 308.52 62.59 307.96 106.17"/><polygon class="cls-29" points="317.71 115.87 230.16 115.87 234.43 106.17 313.43 106.17 317.71 115.87"/><polygon class="cls-30" points="234.43 106.17 246.53 106.17 250.57 115.87 230.16 115.87 234.43 106.17"/><polygon class="cls-31" points="436.79 337.08 471.18 48.84 471.74 44.17 467 44.09 1.07 35.96 1.07 44.52 462.18 52.56 431.78 339.17 431.5 341.81 434.13 341.8 494.97 341.49 494.97 337.37 436.79 337.08"/><polygon class="cls-32" points="1.07 49.13 1.07 89.18 449.52 89.18 454.12 54.2 1.07 49.13"/><polygon class="cls-31" points="1.07 88.3 1.07 94.49 451.02 93.13 451.82 88.3 1.07 88.3"/><polygon class="cls-33" points="1.07 78.17 1.07 82.4 450.53 81.47 450.97 78.17 1.07 78.17"/><polygon class="cls-33" points="1.07 52.55 1.07 56.15 453.44 59.31 453.88 55.99 1.07 52.55"/><polygon class="cls-33" points="1.07 69.99 1.07 74.01 451.46 74.44 451.89 71.14 1.07 69.99"/><polygon class="cls-33" points="1.07 61.27 1.07 65.08 452.45 66.88 452.88 63.56 1.07 61.27"/></g><path class="cls-34" d="M462.33,138.93a7.72,7.72,0,0,0-9.17-1.52c-3.46,1.77-5.67,4.85-9,.94-5.45-6.36-14.61,2.87-9.19,9.19a16.72,16.72,0,0,0,7.3,4.89,4.34,4.34,0,0,0,0,1.08c.91,6.82,6.4,12.52,13.78,10.47s8.16-8.89,8.23-15.35C464.3,145.33,464.85,141.52,462.33,138.93Z"/><rect class="cls-35" x="505.11" y="146.21" width="25.38" height="12.33" transform="translate(108.19 503.88) rotate(-57.03)"/><path class="cls-36" d="M528.35,145.33l-11.81,18.21h0a1.62,1.62,0,0,0-2.24.45l-7-4.57,11.81-18.21a1.61,1.61,0,0,0,2.23-.45Z"/><path class="cls-37" d="M521,154.48a3.87,3.87,0,1,1-1.14-5.35A3.87,3.87,0,0,1,521,154.48Z"/><path class="cls-38" d="M517.63,150.32l-.07.05-.35.46a1.42,1.42,0,0,0-.53-.13l.49-.63a.19.19,0,0,0,0-.08.13.13,0,0,0,0-.07l-.28-.21a.08.08,0,0,0-.08,0,.13.13,0,0,0-.07,0L515,152a.11.11,0,0,0,0,.08.15.15,0,0,0,0,.07l.36.28.08,0a.13.13,0,0,0,.07,0l.3-.39c.3-.39.58-.55.87-.49l-.87,1.12a.19.19,0,0,0,0,.07.08.08,0,0,0,0,.07l.28.22a.08.08,0,0,0,.08,0,.1.1,0,0,0,.07,0l.89-1.15a.63.63,0,0,1,.12.54,1.46,1.46,0,0,1-.33.66l-.23.3a.08.08,0,0,0,0,.08.1.1,0,0,0,0,.07l.35.27.08,0q.95-.09,2.58-.15a.09.09,0,0,0,.08,0l.41-.53a.09.09,0,0,0,0-.11.11.11,0,0,0-.1-.07c-1,0-1.85.06-2.41.12a1.76,1.76,0,0,0,.28-1,1.24,1.24,0,0,0-.36-.83l.35-.46a.08.08,0,0,0,0-.08.13.13,0,0,0,0-.07l-.28-.21A.11.11,0,0,0,517.63,150.32Z"/><rect class="cls-35" x="501.24" y="146.21" width="25.38" height="12.33" transform="translate(211.13 594.7) rotate(-72.12)"/><path class="cls-36" d="M522.28,142.83l-6.66,20.65h0a1.62,1.62,0,0,0-2,1l-8-2.58,6.66-20.65a1.62,1.62,0,0,0,2-1Z"/><path class="cls-37" d="M517.61,153.56a3.87,3.87,0,1,1-2.49-4.86A3.87,3.87,0,0,1,517.61,153.56Z"/><path class="cls-38" d="M513.24,150.44a.09.09,0,0,0-.06.06L513,151a1.39,1.39,0,0,0-.54,0l.3-.73a.14.14,0,0,0,0-.09.15.15,0,0,0-.06,0l-.33-.14h-.08l-.06.06-1.09,2.61a.14.14,0,0,0,0,.09.1.1,0,0,0,.06,0l.42.18h.08a.09.09,0,0,0,.06-.06l.19-.46c.19-.44.42-.67.71-.69l-.54,1.3a.11.11,0,0,0,0,.08.09.09,0,0,0,.06.06l.32.13a.08.08,0,0,0,.08,0,.12.12,0,0,0,.06-.06l.56-1.35a.68.68,0,0,1,.26.49,1.51,1.51,0,0,1-.15.73l-.14.35a.08.08,0,0,0,0,.08.12.12,0,0,0,.06.06l.41.16a.08.08,0,0,0,.08,0c.6-.23,1.41-.49,2.45-.82a.07.07,0,0,0,.07-.06l.26-.62a.09.09,0,0,0,0-.11.09.09,0,0,0-.11,0c-1,.31-1.77.54-2.3.75a1.78,1.78,0,0,0,0-1,1.29,1.29,0,0,0-.57-.71l.22-.53a.11.11,0,0,0,0-.08.15.15,0,0,0-.06,0l-.33-.14Z"/><rect class="cls-35" x="498.07" y="147.1" width="25.38" height="12.33" transform="translate(317.81 650.4) rotate(-85.49)"/><path class="cls-36" d="M516.67,142.05,515,163.69h0a1.61,1.61,0,0,0-1.75,1.46l-8.38-.66,1.7-21.64a1.6,1.6,0,0,0,1.75-1.46Z"/><path class="cls-37" d="M514.61,153.57a3.87,3.87,0,1,1-3.55-4.15A3.87,3.87,0,0,1,514.61,153.57Z"/><path class="cls-38" d="M509.64,151.54a.09.09,0,0,0,0,.08l-.1.57a1.3,1.3,0,0,0-.52.14l.13-.78a.11.11,0,0,0,0-.08.12.12,0,0,0-.07-.05l-.35,0a.11.11,0,0,0-.08,0,.2.2,0,0,0,0,.08l-.46,2.79a.11.11,0,0,0,0,.08.1.1,0,0,0,.07,0l.45.08a.11.11,0,0,0,.08,0,.08.08,0,0,0,0-.07l.08-.49c.08-.48.26-.75.53-.84l-.22,1.39a.11.11,0,0,0,0,.08.12.12,0,0,0,.08,0l.34.06a.11.11,0,0,0,.08,0,.08.08,0,0,0,0-.07l.24-1.43a.62.62,0,0,1,.36.41,1.49,1.49,0,0,1,0,.74l-.06.37a.14.14,0,0,0,0,.09l.08,0,.43.07a.12.12,0,0,0,.08,0c.53-.36,1.26-.81,2.19-1.36,0,0,.05,0,.06-.08l.11-.66a.12.12,0,0,0-.05-.11.09.09,0,0,0-.11,0c-.91.52-1.6.93-2.07,1.25a1.66,1.66,0,0,0-.22-1,1.25,1.25,0,0,0-.71-.56l.09-.56a.08.08,0,0,0,0-.08s0,0-.07,0l-.34-.05A.11.11,0,0,0,509.64,151.54Z"/><path class="cls-39" d="M519.41,246l2.52.68a1.4,1.4,0,0,1,1,1.71l-1.85,6.9a1.39,1.39,0,0,1-1.71,1l-2.51-.68a1.39,1.39,0,0,1-1-1.71l1.85-6.9A1.4,1.4,0,0,1,519.41,246Z"/><path class="cls-40" d="M522.38,247.34l-1.85,6.9a1.4,1.4,0,0,1-1.71,1l-2.51-.67a1.38,1.38,0,0,1-.5-.25,1.4,1.4,0,0,0,1,1.26l2.51.68a1.39,1.39,0,0,0,1.71-1l1.85-6.9a1.39,1.39,0,0,0-.49-1.46A1.34,1.34,0,0,1,522.38,247.34Z"/><path class="cls-39" d="M573.92,195.27a.55.55,0,0,0-.66.38c-.12.49.29,3.11-2.23,4.46,0,0-.25,1.13,1.28,1.84s18.32,4.94,29.23,3.38,6-25.85-.26-40.92-7.93-20.14-21.57-24.55L575.64,154l7.39,6.37,7,21.89Z"/><path class="cls-41" d="M527.9,224.12a5.6,5.6,0,0,0-2.12,2.26c-.52,1.32-3.88,9.22-4.47,10.94s.21,7.41,2.3,8.52,6.46-2.33,6.24-8.74-.72-7.74.77-10.07S527.9,224.12,527.9,224.12Z"/><path class="cls-42" d="M527.9,224.12a5.68,5.68,0,0,0-2.12,2.26c-.15.39-.57,1.4-1.09,2.64,1,.59,2.52,2.17,2.66,6.4.2,5.65-1.44,8.72-5.28,8.38a3.91,3.91,0,0,0,1.54,2c2.08,1.12,6.46-2.33,6.24-8.74s-.72-7.74.77-10.07S527.9,224.12,527.9,224.12Z"/><path class="cls-43" d="M547.65,145.94l-2.17,1.37h2.59a6.39,6.39,0,0,0-.42-1.37Zm-8.25,19.42c-.69,8.38-1.8,18.57-3.49,25.65-3.37,14.11-11,34.46-10.86,36.33s3.06,2.37,4.62,2.12S544.05,201.2,547.22,176c.51-4.07.87-7.6,1.11-10.68Z"/><path class="cls-44" d="M546.49,146.67l-1,.64h2.59l-.06-.25-1.52-.39Zm-7.09,18.69c-.11,1.44-.24,2.93-.39,4.45,1.12,3.82,1.86,9.33,1.2,17.05-1.62,19-6.53,31.54-9.92,36.95-1.89,3-3.85,3.41-5.21,3.16a1.34,1.34,0,0,0,0,.37c.12,1.87,3.06,2.37,4.62,2.12S544.05,201.2,547.22,176c.51-4.07.87-7.6,1.11-10.68Z"/><path class="cls-45" d="M589.77,149.82,583,141.2l-1.5-1.29-15.15-5.7-7,1.09h0s-7,3.41-7.58,3.38a1,1,0,0,1-.3-.12l-4.13,11.9s-2.51,17.23-2.87,18.4-.66,17.7.64,20.07.2,6.06,5.22,7.6,15.75,4.53,23-3.08,8.7-11.85,10.5-14.42S589.77,149.82,589.77,149.82Z"/><path class="cls-46" d="M548.88,151.84c2.25-1.41,3.53-.25,6,2.38s4.76,2.39,6.11,3,1.31,25-7.53,28.76c-3.26,1.39-5.29-.05-6.55-3C544.62,177.76,543,155.52,548.88,151.84Z"/><path class="cls-47" d="M561.15,145l-.42.73s-6,18.16-5.76,32.71,7.59,2.11,7.47.87-1.43-24.94-.15-33.49C562.29,145.86,562.19,144.71,561.15,145Z"/><path class="cls-48" d="M561.15,145l-.42.73s-.22.66-.57,1.83c.45.32,1,1.09,1,2.91,0,2.57.17,12.59-5.5,17.7a73.43,73.43,0,0,0-.66,10.27c.25,14.55,7.59,2.11,7.47.87s-1.43-24.94-.15-33.49C562.29,145.86,562.19,144.71,561.15,145Z"/><path class="cls-49" d="M542.37,231.91l-2,2.42s1.3,21.21,4.29,48.58,8.71,77,8.58,81.87,7.38,2.05,8.31.68-2.34-98-1.59-106.81c.26-3.08,4.92-1.92,6.73,4.22,3.39,11.45,4.9,35.62,5.95,49.39,1.62,21.14,4.57,53.45,4.36,55.16s6.59,3.42,8,.69a3.37,3.37,0,0,0,.18-1.87c-.09-1.46,1.37-134.37-.37-138S546.47,222.92,542.37,231.91Z"/><path class="cls-40" d="M542.37,231.91l-2,2.42s.29,4.76.92,12.68c2.45-2.72,6.8-5.84,14.89-5.47,13.93.66,23.26,11,24.5,27.9s2.76,83.07,2,89.68-4.84,6.05-6.15.48c.34,4.42.54,7.34.48,7.82-.22,1.71,6.59,3.42,8,.69a3.37,3.37,0,0,0,.18-1.87c-.09-1.46,1.37-134.37-.37-138s-38.31-5.35-42.41,3.64ZM553.18,363c3.41,1.08,6-.64,6.05-5,.12-5.35-5.22-97.39-3-99.88s5.82-1.06,5.82-1.06h0a1.6,1.6,0,0,0-2.09,1.59c-.75,8.83,2.53,105.44,1.59,106.81s-8.43,4.17-8.31-.68C553.26,364.42,553.24,363.8,553.18,363Z"/><path class="cls-39" d="M557.66,136.12s-5.94,13.9-3.7,29.82a140.62,140.62,0,0,0,7,28.12v29.7l-6.93.16,2.08,5.71-2.94-1s-.42,6.4-8.75,6.9-7.09-4.73-6.22-9,4.35-14.37,2.73-32S534.3,139.21,557.66,136.12Z"/><path class="cls-44" d="M553.51,161c.07,1.63.21,3.3.45,5a140.62,140.62,0,0,0,7,28.12v26.61c-.59,1.06-1.22,2.1-1.87,3.13l-5.06.12,1.73,4.74-.51.67-2.08-.75s-.42,6.4-8.75,6.9c-3.7.22-5.51-.69-6.31-2.14,4.94.69,9.53-.49,13.15-23.25s-3.3-40.3-4.11-44.62a41.21,41.21,0,0,1-.83-6.08l5-5.1.6,6.43Z"/><path class="cls-39" d="M586.66,229.68c-2.4,5.62-16.39,9-23.85,9.49-15.84,1.1-8.22-30-7.44-38.7,2.29-25.8,1.14-43.08,18.83-63.47,4.13.77,10.63,4.28,10.63,4.28,3.27,1.68,7.36,4.68,7.9,8.39.77,5.28-5.08,23.55-8.69,35C578,203.84,589.92,222,586.66,229.68Z"/><path class="cls-44" d="M586.66,229.68c-1.86,4.38-10.78,7.39-18.15,8.74,9.38-5.95,11.38-19.7,9.33-34.75-2.74-20.09,3.74-43.7,3.74-43.7l3,2.53,5.51,2.19c-1.82,6.7-4.21,14.21-6,20C578,203.84,589.92,222,586.66,229.68Z"/><path class="cls-42" d="M571.87,119.91l-.18,4.14v9.76a3.52,3.52,0,0,0,1.61,2.3c-1.53,1.65-5.29,5.5-7.65,5.86a11.5,11.5,0,0,1-7.37-1.61c-.61-.53-.67-3.23-1-4.74.27-.08,0,0,.24-.09a4.46,4.46,0,0,0,1.88-1.08c1.42-1.55,1.35-8.43-.06-10.23S571.87,119.91,571.87,119.91Z"/><path class="cls-44" d="M596.88,201.68c1.1-3.9-5-14.67-9.54-22.35-.52-.9-1-1.75-1.49-2.55-1.41-2.41-2.49-4.29-2.87-5.21-.11-.3-.24-.64-.36-1-.18-.57-.35-1.23-.51-1.95a23.72,23.72,0,0,1-.48-3.53c.59-1.81,1.51-2.65,2.46-2.06.54.34.79.89,1.13,2,.27.86.6,2,1.18,3.73.2.57.42,1.2.69,1.9.44,1.15,1,2.48,1.67,4,.93,2.12,2.13,4.61,3.69,7.57,7.85,14.93,4.17,20.31,4.17,20.31C596.72,202.2,596.81,201.93,596.88,201.68Z"/><path class="cls-40" d="M543.18,99.09c-19-24.31,23.27-40.42,33.3-31.88,27.6,5.61,15.26,45.93-2.44,44.35-5.46-.49-17-3.23-29.27-4.35-.06-.7-.14-1.44-.2-2.23Z"/><path class="cls-50" d="M586.85,72.32c13.11,12.42,2,40.57-12.81,39.24l-.8-.08c-4-8.58-9.53-21.52-9.53-21.52C574.54,91.91,594.64,84.69,586.85,72.32Z"/><path class="cls-50" d="M543.18,96.3c-3.49-4.47-4.9-5.88-4.83-9.69h12.23Z"/><path class="cls-51" d="M544.57,111a6.05,6.05,0,1,0-6.06-6A6.06,6.06,0,0,0,544.57,111Z"/><path class="cls-51" d="M586,111a6,6,0,1,0-6-6A6.06,6.06,0,0,0,586,111Z"/><path class="cls-41" d="M563.91,68.33h0a20.78,20.78,0,0,1,20.72,20.72v18.84a20.78,20.78,0,0,1-20.72,20.72h0a20.78,20.78,0,0,1-20.73-20.72V89.05A20.78,20.78,0,0,1,563.91,68.33Z"/><path class="cls-42" d="M584.12,84.47a21,21,0,0,1,.51,4.58v18.84a20.78,20.78,0,0,1-20.72,20.72c22.15-4.37,15-32.43,8.21-34.87s-21.29-3-25.24-2.28a4.11,4.11,0,0,0-3.7,3.93V89.05a20.33,20.33,0,0,1,1.12-6.69c4.15-.6,15.12.06,25.12.06a53.24,53.24,0,0,1,14.7,2Zm-20.21,44.14"/><rect class="cls-52" x="546.76" y="100.56" width="4.06" height="6.7" rx="2.03" ry="2.03"/><rect class="cls-52" x="569.91" y="100.56" width="4.06" height="6.7" rx="2.03" ry="2.03"/><path class="cls-50" d="M545.46,95.49h5.74a1.1,1.1,0,0,1,1.1,1.1h0a1.1,1.1,0,0,1-1.1,1.1h-5.74a1.1,1.1,0,0,1-1.1-1.1h0A1.1,1.1,0,0,1,545.46,95.49Z"/><path class="cls-45" d="M560.56,140.08l1.71-.92s.14,1.88.34,1.94.48-1.18,1.21-1.63,2.72,2.24,2.72,2.24-.74,2.1-1.8,2.25-4.24.51-4.28-.44S560.56,140.08,560.56,140.08Z"/><path class="cls-50" d="M568.62,95.49h5.73a1.1,1.1,0,0,1,1.1,1.1h0a1.1,1.1,0,0,1-1.1,1.1h-5.73a1.1,1.1,0,0,1-1.1-1.1h0A1.1,1.1,0,0,1,568.62,95.49Z"/><path class="cls-48" d="M562.76,142.35a6.65,6.65,0,0,0,2.76-.92,1.7,1.7,0,0,1,2.19.2L566.5,143l-.09.58a4.45,4.45,0,0,0-3,.52C562.3,144.94,562.76,142.35,562.76,142.35Z"/><path class="cls-53" d="M565.39,112.09a6.59,6.59,0,0,1-13.18,0h0a1.15,1.15,0,0,1,1.14-1.14h10.88a1.15,1.15,0,0,1,1.14,1.14Z"/><path class="cls-51" d="M547.46,114.56a3,3,0,1,0-3-3A3,3,0,0,0,547.46,114.56Z"/><path class="cls-51" d="M573.26,114.56a3,3,0,1,0-3-3A3,3,0,0,0,573.26,114.56Z"/><path class="cls-50" d="M587.29,99.06l-4.45-1.86s-2.39,5.4,1.79,7.26v-2.58A2.56,2.56,0,0,1,587.29,99.06Z"/><path class="cls-40" d="M586.9,95.51l-1.69,3.29s-5.61-.84-6.51-8.24c-7.32,2-17-1.92-25.35-1.57-2.35.1-15.17,1-10.17,6.66V97s-2.08-.64-3.61-4.21h0C527.47,99,522,74.37,534.83,64c7.53-6.11,1.76,2.9,8.37,6.4C556.92,55.39,592.62,57.83,586.9,95.51Z"/><path class="cls-54" d="M557.44,136.66s-8.15,19.85.12,46.76l0,2.05s-6.88-12.52-10.11-22.72c0,0-.28-1,.4-1.4s2.08-1.42,2.86-1.42-.4-1-3.45.3a1.37,1.37,0,0,1-1-.84c-.22-.69.69-12.1,8.81-22.76,0,0,.12-.3.73-.47S557.64,135.65,557.44,136.66Z"/><path class="cls-50" d="M586.9,95.51l-1.7,3.29s-5.6-.84-6.5-8.24c-4.26,1.17-9.33.33-14.46-.51,7.47,1.11,18.86-1.89,22.89-7.78a44.69,44.69,0,0,1-.23,13.24Zm-23-5.51-.22,0h0Z"/><path class="cls-53" d="M572.52,134.13a11.21,11.21,0,0,1-7.83,4.85,1.51,1.51,0,0,0-1.22,1.4c0,1.15,3.36,4.26,3.67,5.94s7.16-7.06,7.59-9.79C574.73,136.53,573.61,134.44,572.52,134.13Z"/><path class="cls-47" d="M560.37,142.45a2.45,2.45,0,0,1,1.18-.51,3.37,3.37,0,0,1,1.9.36,3.72,3.72,0,0,1,.92,1.45,7.76,7.76,0,0,1-2.08,2.11c-.5.25-1-.15-1.56-.09S560.05,143,560.37,142.45Z"/><path class="cls-48" d="M562.87,142a1.35,1.35,0,0,1,.58.26,3.72,3.72,0,0,1,.92,1.45,7.76,7.76,0,0,1-2.08,2.11c-.5.25-1-.15-1.56-.09-.14,0-.24-.16-.33-.43C564.19,144.77,563.13,142.49,562.87,142Z"/><path class="cls-47" d="M555.63,366.05a4.61,4.61,0,0,0-3.4-.66c-1.77.45-12,5.27-13.62,5.93s-3.36,3.18-2.07,4.62,9.91,1.28,14.48.37a31,31,0,0,1,9.78-.16c1.69.12,3.65-3.52,2-8.78S561.71,367,555.63,366.05Z"/><path class="cls-48" d="M555.63,366.05a4.61,4.61,0,0,0-3.4-.66,5,5,0,0,0-.53.17c1.46.33,4.4,1.22,5,3.17s.88,5-1.16,7.1a45.47,45.47,0,0,1,5.28.32c1.69.12,3.65-3.52,2-8.78S561.71,367,555.63,366.05Z"/><path class="cls-53" d="M536.27,373.81a2,2,0,0,0,.27,2.13c1.3,1.44,9.91,1.28,14.48.37a31,31,0,0,1,9.78-.16c1.06.08,2.23-1.34,2.55-3.71-1.25,1.73-3.41,1.88-7.55,1.56s-8.2.78-13.59,1.29C538.44,375.64,536.87,374.51,536.27,373.81Z"/><path class="cls-45" d="M555.52,375.83a45.47,45.47,0,0,1,5.28.32c1.06.07,2.23-1.34,2.55-3.71-1.16,1.61-3.11,1.85-6.7,1.62A5.12,5.12,0,0,1,555.52,375.83Z"/><path class="cls-47" d="M577.73,367.45s3-3.42,6.6-.7a5.27,5.27,0,0,1,2.72,2.47c.74,1.73,2.14,2.52,2.39,4.41s-.33,3.38-2.93,3.38h-4.2c-1.86,0-4.62.29-5.57-2s0-4.41-.33-5.6S577.73,367.45,577.73,367.45Z"/><path class="cls-48" d="M577.73,367.45s3-3.42,6.6-.7a5.23,5.23,0,0,1,2.72,2.47c.74,1.73,2.14,2.52,2.39,4.41s-.33,3.38-2.93,3.38h-2.32c3.7-3,.52-8.95-2.45-9.47-2-.34-4,.8-5.35,1.75C576.17,368.15,577.73,367.45,577.73,367.45Z"/><path class="cls-53" d="M589.48,374c.12,1.72-.54,3-3,3h-4.2c-1.86,0-4.62.29-5.57-2a5.65,5.65,0,0,1-.39-1.53s1.09,1.49,4.66,1.71S588.86,375.44,589.48,374Z"/><path class="cls-45" d="M589.48,374c.12,1.72-.54,3-3,3h-2.32a4.39,4.39,0,0,0,1.32-1.74C587.51,375.18,589.12,374.84,589.48,374Z"/><path class="cls-54" d="M574.2,137S558,148.37,556.51,187.57c0,0-.07.8.33.86s7.74-20.92,12.47-24.66a1.25,1.25,0,0,0,.44-1.39c-.32-.84-2.59-2.46-3.64-3s3,0,4.44.81,2.43,0,3.39-1.47-.33-18,3.76-20.64a.42.42,0,0,0-.07-.44,15.88,15.88,0,0,0-2.55-.85A1.07,1.07,0,0,0,574.2,137Z"/><path class="cls-53" d="M559.06,134s.14,3.47,2.84,4.68a.62.62,0,0,1,.14,1.05,15.63,15.63,0,0,0-1.77,4.53c-.27,1.19-3.6-4.86-3.36-8.57A6.5,6.5,0,0,1,559.06,134Z"/><path class="cls-55" d="M563.3,160.43s-1.5.39-1.5,1.76,1.69,47.41,1.82,48.71.55,1.92,2.4,1.95,31.54-1.66,32.64-1.79a2.87,2.87,0,0,0,2.89-2.95c.2-2.44-1.55-44.82-1.59-46.61A2.49,2.49,0,0,0,597.1,159C595.68,159.1,568.36,160.23,563.3,160.43Z"/><path class="cls-56" d="M562.83,191.15l.3,7.94a26.86,26.86,0,0,1,7,2.67c7.15,3.83,5.91,2.86,7.08,3.31s-4.57,3.74-13.64,4.81c0,.57.05.92.06,1,.13,1.3.55,1.92,2.4,1.95s31.54-1.66,32.64-1.79a2.87,2.87,0,0,0,2.89-2.95c.2-2.44-1.55-44.82-1.59-46.61A2.49,2.49,0,0,0,597.1,159l-2.51.11s6,27.92-11.52,41.24c0,0-15.66-10-17-9.65a28.27,28.27,0,0,1-3.27.42ZM562.46,181a6.7,6.7,0,0,1,3.37,0l2.46,5.13a38.53,38.53,0,0,1-5.66-.38l-.17-4.76Zm12.18-19.09,8.5-.48a.91.91,0,0,1,1,.85l.1,1.82a.91.91,0,0,1-.85,1l-8.5.48a.91.91,0,0,1-1-.85l-.1-1.82A.91.91,0,0,1,574.64,161.9Z"/><path class="cls-41" d="M562.49,182s-2-.46-2.44,2.21-1.69,9.8,4.74,12.27,8.44,2.86,10.26,3.9,3.25-3.77,1.88-4.55-2.59-1.95-4.48-4.87-4.78-5.92-7.34-6.56S562.49,182,562.49,182Z"/><path class="cls-42" d="M560.05,184.19c-.4,2.67-1.68,9.79,4.74,12.25s8.44,2.86,10.26,3.9,3.25-3.77,1.88-4.55a8.73,8.73,0,0,1-2.39-2c-1.67,1.85-4.5,3-9,.64A10.48,10.48,0,0,1,560.05,184.19Z"/><path class="cls-41" d="M565.63,186.05s-1.85-3.28-1.39-4.68,4.84.33,5.87,4a25.47,25.47,0,0,0,1.24,3.95S567.06,188.61,565.63,186.05Z"/><path class="cls-39" d="M596,197.81c-5.28.17-19.11-2.83-19.11-2.83a.55.55,0,0,0-.66.39c-.12.49.29,3.1-2.23,4.46,0,0-.25,1.13,1.28,1.84s15.48,4.22,26.23,3.66c0-1.37,2.81-3.23,2.74-5.31,0-1.59-3-3.28-3.06-5.14C601.22,194.88,601.31,197.63,596,197.81Z"/><rect class="cls-57" x="574.17" y="161.01" width="10.33" height="3.64" rx="0.91" ry="0.91" transform="translate(-8.32 33.21) rotate(-3.26)"/><path class="cls-45" d="M583,160.8l.51,0a.91.91,0,0,1,1,.85l.1,1.82a.91.91,0,0,1-.85,1l-8.5.48a.91.91,0,0,1-1-.85v-.13C584.22,164.38,583,160.81,583,160.8Z"/><path class="cls-39" d="M530.37,69.27c3.34,16.44,44.72,11.31,50.36-.8.45.46.89,1,1.3,1.46-9,16.14-40.63,18.18-54.38,13.34A23,23,0,0,1,530.37,69.27Z"/><path class="cls-39" d="M540.94,78.45c13.62,3.73,35.76-1.35,39.79-10q.87.34,1.68.75c-6.67,13.28-28.32,17.42-44,16.13A15.85,15.85,0,0,1,540.94,78.45Z"/><path class="cls-40" d="M521.11,247.34a.74.74,0,1,1-1.38-.51,7.86,7.86,0,0,1,2.26-3.34,7,7,0,0,0,.69,1.34,6.59,6.59,0,0,0-1.57,2.51Zm6.19-2.86a7.63,7.63,0,0,1,.34,3.17.73.73,0,0,1-.78.69.74.74,0,0,1-.68-.79,7.55,7.55,0,0,0-.11-2.11A5.8,5.8,0,0,0,527.3,244.48Z"/><path class="cls-40" d="M526.42,243.1a2.61,2.61,0,0,1,.22.24c.73.82,1.15,2.23,1,4.31a.73.73,0,0,1-.78.69.74.74,0,0,1-.68-.79,4.56,4.56,0,0,0-.64-3.25l-.09-.09h0a.93.93,0,0,1,.29-1.15.7.7,0,0,1,.68,0Z"/><path class="cls-58" d="M527.63,252.58h0a1.1,1.1,0,0,1,1.35.78l.61,2.27-.62.16a.47.47,0,0,0-.33.58h0a.46.46,0,0,0,.57.33l.62-.17.26,1-.26.07a.47.47,0,0,0-.33.58h0a.46.46,0,0,0,.57.33l.26-.07.4,1.48a1.1,1.1,0,0,1-.78,1.35h0a1.1,1.1,0,0,1-1.35-.78l-1.75-6.54A1.09,1.09,0,0,1,527.63,252.58Z"/><path class="cls-39" d="M524.33,248.18l4-1.06a1.14,1.14,0,0,1,1.38.8l1.15,4.29a1.14,1.14,0,0,1-.8,1.38l-4,1.06a1.13,1.13,0,0,1-1.38-.8l-1.15-4.29a1.13,1.13,0,0,1,.8-1.38Zm.45,1a.52.52,0,0,0-.35.61h0a.49.49,0,0,0,.6.35l3.63-1a.5.5,0,0,0,.35-.61h0a.5.5,0,0,0-.6-.35Z"/><path class="cls-40" d="M528.92,247.53l1.15,4.28a1.14,1.14,0,0,1-.79,1.39l-.33.08-2.12.57-1.51.41a1.44,1.44,0,0,1-.41,0,1.15,1.15,0,0,0,1.15.36l.91-.25,2.13-.57.92-.24a1.14,1.14,0,0,0,.8-1.38l-1.15-4.29a1.13,1.13,0,0,0-1-.83A1,1,0,0,1,528.92,247.53Z"/><path class="cls-42" d="M442.5,120.91l.17,4.14v9.76a3.49,3.49,0,0,1-1.6,2.3c1.53,1.65,5.29,5.5,7.65,5.86a11.52,11.52,0,0,0,7.37-1.61c.61-.52.67-3.23,1-4.74-.28-.08,0,0-.24-.09a4.44,4.44,0,0,1-1.89-1.08c-1.41-1.55-1.35-8.43.07-10.23S442.5,120.91,442.5,120.91Z"/><path class="cls-40" d="M471.18,100.09c19-24.31-23.26-40.42-33.29-31.87-27.61,5.6-15.26,45.92,2.44,44.34,5.45-.49,17-3.23,29.26-4.35.07-.7.14-1.44.21-2.23Z"/><path class="cls-50" d="M427.51,73.32c-13.1,12.42-2,40.57,12.82,39.24l.79-.08c4-8.58,9.54-21.52,9.54-21.52C439.83,92.91,419.72,85.69,427.51,73.32Z"/><path class="cls-50" d="M471.18,97.31c3.5-4.48,4.91-5.89,4.84-9.7H463.78Z"/><path class="cls-51" d="M469.8,112a6,6,0,1,0-6.05-6A6.06,6.06,0,0,0,469.8,112Z"/><path class="cls-51" d="M428.35,112a6,6,0,1,0-6.05-6A6.06,6.06,0,0,0,428.35,112Z"/><path class="cls-41" d="M450.46,69.33h0a20.78,20.78,0,0,0-20.73,20.72v18.84a20.78,20.78,0,0,0,20.73,20.72h0a20.78,20.78,0,0,0,20.72-20.72V90.05A20.78,20.78,0,0,0,450.46,69.33Z"/><path class="cls-42" d="M430.25,85.48a20.26,20.26,0,0,0-.52,4.57v18.84a20.78,20.78,0,0,0,20.73,20.72c-22.15-4.37-15-32.43-8.21-34.87s21.29-3,25.23-2.28a4.08,4.08,0,0,1,3.7,3.93V90.05a20.59,20.59,0,0,0-1.11-6.69c-4.15-.6-15.13.06-25.12.06a52.78,52.78,0,0,0-14.7,2.06Zm20.21,44.13"/><rect class="cls-52" x="464.76" y="101.56" width="4.06" height="6.7" rx="2.03" ry="2.03"/><path class="cls-50" d="M443.63,101.56h0a2,2,0,0,0-2,2v2.64a2,2,0,0,0,2,2h0a2,2,0,0,0,2-2v-2.64A2,2,0,0,0,443.63,101.56Z"/><path class="cls-50" d="M470.42,96.49h-5.74a1.11,1.11,0,0,0-1.1,1.1h0a1.1,1.1,0,0,0,1.1,1.1h5.74a1.1,1.1,0,0,0,1.1-1.1h0A1.1,1.1,0,0,0,470.42,96.49Z"/><path class="cls-50" d="M447.27,96.49h-5.74a1.11,1.11,0,0,0-1.1,1.1h0a1.1,1.1,0,0,0,1.1,1.1h5.74a1.1,1.1,0,0,0,1.1-1.1h0A1.11,1.11,0,0,0,447.27,96.49Z"/><path class="cls-51" d="M467.35,115.56a3,3,0,1,0-3-3A3,3,0,0,0,467.35,115.56Z"/><path class="cls-51" d="M441.56,115.56a3,3,0,1,0-3-3A3,3,0,0,0,441.56,115.56Z"/><path class="cls-50" d="M427.08,100.06l4.44-1.86s2.39,5.4-1.79,7.27v-2.59A2.55,2.55,0,0,0,427.08,100.06Z"/><path class="cls-40" d="M427.46,96.51l1.7,3.29s5.6-.84,6.51-8.24c7.32,2,17-1.92,25.34-1.57,2.36.1,15.18,1,10.17,6.66V98s2.09-.64,3.61-4.21h0c11.1,5.69,16.62-14.53,7.56-25.93C474.73,58.25,420.56,54.45,427.46,96.51Z"/><path class="cls-50" d="M427.46,96.51l1.7,3.29s5.6-.84,6.51-8.24c4.26,1.17,9.33.33,14.46-.51-7.47,1.11-18.86-1.89-22.89-7.78a45,45,0,0,0,.22,13.24Zm23-5.51.22,0h0Z"/><path class="cls-39" d="M484,70.27c-3.34,16.44-44.72,11.31-50.36-.8a18.06,18.06,0,0,0-1.3,1.46c9,16.14,40.62,18.18,54.38,13.34A23.07,23.07,0,0,0,484,70.27Z"/><path class="cls-39" d="M473.43,79.45c-13.62,3.73-35.77-1.35-39.79-10-.59.24-1.15.48-1.68.75,6.67,13.28,28.32,17.42,44,16.13A15.83,15.83,0,0,0,473.43,79.45Z"/><path class="cls-59" d="M412.36,242.42s.54,2.93,1.37,3.67,1.86,5.71.34,8.06-5.67.49-6.59-1.66,1.22-7.23,1.17-9.87S412.36,242.42,412.36,242.42Z"/><path class="cls-59" d="M506.75,175.3s1.06-3.52.56-4.79,1.17-7.32,4.14-9,6.5,2.64,6.31,5.52-5.39,7.26-6.82,10.18S506.75,175.3,506.75,175.3Z"/><path class="cls-59" d="M509.48,168.26l-.12-.18c-.41-.61-1.78-2.48-2.76-2-1.15.58,0,6.34.51,7.35s2-.41,2.17-1A38,38,0,0,0,509.48,168.26Z"/><path class="cls-60" d="M478.23,232.27s-11.53,107.34-12,132.38c0,1.94,1.9.94-.61,1.41-2.06.38-3.79.12-4.82-1.43s-3.7-103.08-5-108.5-4.52-.64-8.13,31.34-9.16,78.3-9.67,79.07-5.72,3.73-5.65-.69-2.54-128.55-1-134.22S478.23,232.27,478.23,232.27Z"/><path class="cls-61" d="M463.11,366.14a3.44,3.44,0,0,1-2.34-1.51c-1-1.55-3.7-103.08-5-108.5-.28-1.17-.66-1.87-1.1-1.91.36,0,4.12.64,5.24,7.9s4.18,83.39,3.18,104Zm-8.44-111.92h0Z"/><path class="cls-62" d="M434.59,368.2h-.71c-.89-.11-1.56-.74-1.54-2.35.06-4.42-2.54-128.55-1-134.22.71-2.59,10.49-2.68,20.93-2l1.42,9.93s-14,.12-15.36,12.05S434.59,368.19,434.59,368.2Z"/><path class="cls-63" d="M437,150.17V137s-9.28.9-19.6,13.93-10.94,86.6-8.88,91.5a2.78,2.78,0,0,0,1.69.88c1,.1,2.55.08,2.81-.85s1.83-73.35,25.31-78.25S437,150.17,437,150.17Z"/><path class="cls-64" d="M437,150.17v-6.86a35.73,35.73,0,0,0-7.46-3.37,44.29,44.29,0,0,0-11.69,10.44c3,3.39,6.13,9.83,4,21.31-3.61,19.86-9.23,46.17-10,61.4-.25,4.89-1.75,7.15-3.67,8a6.51,6.51,0,0,0,.31,1.4,2.78,2.78,0,0,0,1.69.88c1,.1,2.55.08,2.81-.85s1.83-73.35,25.31-78.25S437,150.17,437,150.17Z"/><path class="cls-64" d="M460.56,137.86s19.86,4.83,24.25,34.76,20.76,2.7,22.44,2.06,3.87.64,3.87,1.55-4.9,15.61-15.35,21.67a16.38,16.38,0,0,1-22.31-4.78C470.49,188.48,460.56,137.86,460.56,137.86Z"/><path class="cls-63" d="M510.49,175.28a1.37,1.37,0,0,1,.63.95c0,.9-4.9,15.61-15.35,21.67a16.38,16.38,0,0,1-22.31-4.78c-.78-1.21-2-5.6-3.47-11.39a128.08,128.08,0,0,1,4.56-15.27c.21.76,4.59,7.74,4.59,7.74s-1.26,18.06,9.27,20.85C497.9,197.57,507.31,181.66,510.49,175.28Z"/><path class="cls-65" d="M426.29,163.83c.17,3.1.38,6.43.61,9.85h0c.93,13.9,2.15,29.37,1.89,38.12-.52,17.28-1.57,23.62,4,25.66s43.59,5.12,45.4-5.2.9-45.27.9-61.26-6.32-29.54-18.57-33.15c0,0,.66,21.14-4.37,23.07S442.89,148.5,437,137c0,0-7.8.76-17.05,10.93C423.79,147.86,425.53,156.53,426.29,163.83Z"/><path class="cls-66" d="M426.29,163.83c.17,3.1.38,6.43.61,9.85h0c.93,13.9,2.15,29.37,1.89,38.12-.52,17.28-1.57,23.62,4,25.66,3.71,1.36,21.6,3.16,33.8,1.23-34.49,1.83-36.58-59.63-36.09-78,.37-13.69,7-16.55,10.38-17.12a53.57,53.57,0,0,1-4-6.55s-7.8.76-17.05,10.93C423.79,147.86,425.53,156.53,426.29,163.83Z"/><path class="cls-67" d="M465.35,364.68a4.14,4.14,0,0,1,3.12-.64c1.62.44,11,5.06,12.49,5.7s3.08,3,1.9,4.42-9.09,1.23-13.28.36a27.24,27.24,0,0,0-9-.16c-1.55.12-3.35-3.37-1.86-8.42S459.78,365.59,465.35,364.68Z"/><path class="cls-53" d="M483.11,372.11a2,2,0,0,1-.25,2.05c-1.19,1.39-9.09,1.23-13.28.36a27.24,27.24,0,0,0-9-.16c-1,.08-2.05-1.28-2.34-3.55,1.15,1.66,3.13,1.8,6.92,1.49s7.53.75,12.47,1.23C481.12,373.87,482.56,372.79,483.11,372.11Z"/><path class="cls-67" d="M438,366s-2.85-3.28-6.33-.67a5.05,5.05,0,0,0-2.61,2.37c-.71,1.66-2.05,2.41-2.29,4.23s.32,3.24,2.81,3.24h4c1.78,0,4.42.28,5.33-1.94s0-4.22.32-5.37S438,366,438,366Z"/><path class="cls-53" d="M426.71,372.29c-.12,1.65.52,2.9,2.85,2.9h4c1.78,0,4.42.28,5.33-1.94a5.5,5.5,0,0,0,.38-1.47s-1.05,1.43-4.47,1.65S427.31,373.69,426.71,372.29Z"/><path class="cls-40" d="M437.8,119.19c.16.11,4.06,2.67,6.55.58s2.71-6.48,6.9-6.48h11.49c3.53,0,3.57,3.32,3.73,4.47s4.27-1.75,4.49-5.84a11.35,11.35,0,0,1-.29,5.06V117l0,.13a20.11,20.11,0,0,1-1,3.08l0,.06,0,.09a20.78,20.78,0,0,1-19.11,12.74h0a20.78,20.78,0,0,1-20.73-20.72V101.31h2.46v3.74A20.62,20.62,0,0,0,437.8,119.19Z"/><path class="cls-50" d="M456.19,132.33a20.5,20.5,0,0,1-5.73.81h0a20.78,20.78,0,0,1-20.73-20.72V101.31h2.46v3.74c0,.42,0,.84,0,1.26C432.23,106.31,431.38,133.32,456.19,132.33Z"/><path class="cls-41" d="M451.53,117.13a5.67,5.67,0,1,0,11.33,0h0a1,1,0,0,0-1-1h-9.36a1,1,0,0,0-1,1Z"/><path class="cls-53" d="M454.94,118.29a2.88,2.88,0,0,0,5.75,0h0a.5.5,0,0,0-.49-.5h-4.75a.5.5,0,0,0-.5.5Z"/><polygon class="cls-68" points="340.15 198.9 212.42 198.9 220.88 162.34 331.69 162.34 340.15 198.9"/><path d="M240.72,176.46H235v6h-1.79V168.88h8.41v1.46H235V175h5.7Z"/><path d="M254.23,176.11a8.34,8.34,0,0,1-.67,3.48,5.09,5.09,0,0,1-1.9,2.27,5.57,5.57,0,0,1-5.72,0,5.18,5.18,0,0,1-1.92-2.25,8,8,0,0,1-.71-3.38v-1a8.34,8.34,0,0,1,.68-3.46,5.24,5.24,0,0,1,1.93-2.3,5.19,5.19,0,0,1,7.64,2.27,8.42,8.42,0,0,1,.67,3.49Zm-1.78-.88a6.07,6.07,0,0,0-1-3.71,3.45,3.45,0,0,0-5.38,0,6,6,0,0,0-1,3.59v1a6.09,6.09,0,0,0,1,3.68,3.45,3.45,0,0,0,5.39.07,6,6,0,0,0,1-3.62Z"/><path d="M261.9,177h-3.19v5.5h-1.8V168.88h4.5a5.37,5.37,0,0,1,3.53,1,3.77,3.77,0,0,1,1.23,3,3.67,3.67,0,0,1-.68,2.21,4.12,4.12,0,0,1-1.91,1.41l3.19,5.77v.11h-1.92Zm-3.19-1.46h2.75a3.09,3.09,0,0,0,2.12-.69,2.33,2.33,0,0,0,.79-1.85,2.48,2.48,0,0,0-.75-1.94,3.24,3.24,0,0,0-2.17-.68h-2.74Z"/><path d="M277.41,176.41a8.61,8.61,0,0,1-3.35-1.63,3.13,3.13,0,0,1-1.05-2.39,3.3,3.3,0,0,1,1.28-2.65,5.12,5.12,0,0,1,3.34-1.05,5.56,5.56,0,0,1,2.49.54,4.08,4.08,0,0,1,1.7,1.5,3.79,3.79,0,0,1,.6,2.07h-1.8a2.49,2.49,0,0,0-.78-1.94,3.2,3.2,0,0,0-2.21-.7,3.27,3.27,0,0,0-2.07.58,2,2,0,0,0-.74,1.62,1.76,1.76,0,0,0,.7,1.41,7,7,0,0,0,2.4,1,11.36,11.36,0,0,1,2.65,1.05,4,4,0,0,1,1.42,1.34,3.49,3.49,0,0,1,.46,1.8,3.16,3.16,0,0,1-1.29,2.64,5.49,5.49,0,0,1-3.44,1,6.35,6.35,0,0,1-2.61-.54,4.43,4.43,0,0,1-1.87-1.47,3.58,3.58,0,0,1-.66-2.12h1.8a2.35,2.35,0,0,0,.91,1.95,3.88,3.88,0,0,0,2.43.71,3.46,3.46,0,0,0,2.17-.58,2,2,0,0,0,.06-3.12A8.08,8.08,0,0,0,277.41,176.41Z"/><path d="M292.24,178.91h-5.69l-1.28,3.55h-1.84l5.18-13.58h1.57l5.2,13.58h-1.84Zm-5.15-1.47h4.62l-2.31-6.35Z"/><path d="M299,181h6.44v1.47H297.2V168.88H299Z"/><path d="M315.16,176.18h-5.89V181h6.84v1.47h-8.63V168.88H316v1.46h-6.75v4.38h5.89Z"/><path class="cls-69" d="M171.77,241.63s-.52-9-2.93-11.21c-2.94-2.67-19.22,0-23,4.53s1.07,11.75,4,13.08,13.34,1.87,13.34,1.87Z"/><path class="cls-70" d="M178.71,243.23c-.8,0-6.94-1.6-6.94-1.6l-8.54,8.27,14.15,3.2Z"/><path class="cls-71" d="M168.84,230.42c-2.94-2.67-19.22,0-23,4.53-.14.18-.27.36-.39.55a10.65,10.65,0,0,0,4.06,4.24,29.81,29.81,0,0,0,8.66,3.07l8,1.93c.64.15,1.31.29,2,.38l3.61-3.49S171.25,232.61,168.84,230.42Z"/><path class="cls-72" d="M157.08,244.6c-3.93-1-7.92-1.85-11.93-2.49a11.6,11.6,0,0,0,4.61,5.86h0l6.44-1.46a2,2,0,0,0,1.23-.61C157.71,245.51,157.54,244.72,157.08,244.6Z"/><path class="cls-69" d="M373.16,241.63s.53-9,2.94-11.21c2.94-2.67,19.22,0,22.95,4.53s-1.06,11.75-4,13.08-13.34,1.87-13.34,1.87Z"/><path class="cls-70" d="M366.23,243.23c.8,0,6.93-1.6,6.93-1.6l8.55,8.27-14.15,3.2Z"/><path class="cls-71" d="M376.1,230.42c2.94-2.67,19.22,0,22.95,4.53a5.12,5.12,0,0,1,.4.55,10.61,10.61,0,0,1-4.07,4.24,29.7,29.7,0,0,1-8.66,3.07l-8,1.93c-.64.15-1.31.29-2,.38l-3.62-3.49S373.69,232.61,376.1,230.42Z"/><path class="cls-72" d="M387.85,244.6q5.91-1.53,11.94-2.49a11.6,11.6,0,0,1-4.61,5.86h0l-6.44-1.46a2,2,0,0,1-1.23-.61C387.23,245.51,387.4,244.72,387.85,244.6Z"/><path class="cls-70" d="M156.64,323h33.63a0,0,0,0,1,0,0v38.73a9.76,9.76,0,0,1-9.76,9.76H166.4a9.76,9.76,0,0,1-9.76-9.76V323A0,0,0,0,1,156.64,323Z"/><rect class="cls-73" x="156.64" y="322.97" width="33.63" height="31.09"/><path class="cls-70" d="M355.66,323h33.63a0,0,0,0,1,0,0v38.73a9.76,9.76,0,0,1-9.76,9.76H365.42a9.76,9.76,0,0,1-9.76-9.76V323A0,0,0,0,1,355.66,323Z"/><rect class="cls-73" x="355.66" y="322.97" width="33.63" height="30.26"/><path class="cls-73" d="M215,347.6l7.69,3.91h93.06l14.73-3.91s-2.22-11-3.39-11.34-26.59-4.69-26.59-4.69-19.16.39-21.5.39S240.32,337,240.32,337l-18,5.87Z"/><path class="cls-69" d="M391,277.74c0-3.43-2.23-9.08-4-13.09a16.81,16.81,0,0,0-6.14-7.19l-8.07-5.27s-19.81-54.74-31.8-57.87c-4.71-1.22-23.73-3.18-40.71-4.76a305.51,305.51,0,0,0-58,.15c-15.81,1.55-33.06,3.43-37.62,4.61-12,3.13-31.8,57.87-31.8,57.87l-8.07,5.27a16.75,16.75,0,0,0-6.14,7.19c-1.8,4-4,9.66-4,13.09,0,5.73-1,33.36,1,49a66.6,66.6,0,0,0,4.07,16.68,6.73,6.73,0,0,0,6.22,4.17H215L226,345h93.58l10.95,2.61h49.14a6.73,6.73,0,0,0,6.22-4.17,67.05,67.05,0,0,0,4.07-16.68C392,311.1,391,283.47,391,277.74Z"/><path class="cls-71" d="M273.16,246.46l-90.71-.52s11.47,10.95,19.29,18.24,15.12,13,37,13.56c19.37.46,31.8.11,34.41,0,2.61.09,15,.44,34.41,0,21.9-.52,29.19-6.26,37-13.56s19.29-18.24,19.29-18.24Z"/><path class="cls-74" d="M355.42,220c-3.1-6.58-8.34-13.66-11.33-17.47a9,9,0,0,0-5.74-3.36c-33.51-5.18-57.67-5.45-65.41-5.38s-31.9.2-65.41,5.38a9,9,0,0,0-5.74,3.36c-3,3.81-8.23,10.89-11.33,17.47-4.54,9.61-15,24.82.26,24.82H355.16C370.37,244.83,360,229.62,355.42,220Z"/><rect class="cls-75" x="256.64" y="204.79" width="32.83" height="8.54" rx="3.23" ry="3.23"/><path class="cls-75" d="M218.2,231.17l3.12-10.7a4.26,4.26,0,0,1,4.09-3.07h9.85a4.26,4.26,0,0,1,4.1,3.12l3,10.7a4.25,4.25,0,0,1-4.1,5.4H222.29A4.26,4.26,0,0,1,218.2,231.17Z"/><path class="cls-75" d="M211,244.83l2-4.19a1.26,1.26,0,0,1,1.13-.7h31.33a1.28,1.28,0,0,1,1.08.6l2.57,4.29Z"/><path class="cls-75" d="M305.92,231.17l3.13-10.7a4.25,4.25,0,0,1,4.08-3.07H323a4.27,4.27,0,0,1,4.11,3.12l3,10.7a4.26,4.26,0,0,1-4.1,5.4H310A4.26,4.26,0,0,1,305.92,231.17Z"/><path class="cls-75" d="M298.69,244.83l2-4.19a1.26,1.26,0,0,1,1.14-.7h31.33a1.28,1.28,0,0,1,1.08.6l2.56,4.29Z"/><rect class="cls-76" x="214.21" y="284.59" width="115.3" height="2.14"/><rect class="cls-76" x="214.21" y="288.87" width="115.3" height="2.14"/><rect class="cls-76" x="214.21" y="293.14" width="115.3" height="2.14"/><path class="cls-76" d="M223.07,312.08H326.3a3.35,3.35,0,0,1,2.55,5.51L318.5,329.85a3.36,3.36,0,0,1-2.56,1.18H234.11a3.35,3.35,0,0,1-2.48-1.1l-11-12.26A3.35,3.35,0,0,1,223.07,312.08Z"/><rect class="cls-77" x="237.32" y="300.34" width="69.12" height="16.81" rx="2.9" ry="2.9"/><rect class="cls-78" x="265.82" y="276.53" width="12.12" height="64.43" transform="translate(580.63 36.86) rotate(90)"/><ellipse class="cls-78" cx="271.88" cy="289.35" rx="10.47" ry="7.52"/><path class="cls-79" d="M319.86,219.71a58.14,58.14,0,0,0-6.44-9.94,5.17,5.17,0,0,0-3.27-1.91,227.77,227.77,0,0,0-74.42,0,5.17,5.17,0,0,0-3.27,1.91,57.54,57.54,0,0,0-6.44,9.94c-2.58,5.46-8.5,14.12.15,14.12h93.54C328.36,233.83,322.44,225.17,319.86,219.71Z"/><g class="cls-80"><g class="cls-81"><polygon class="cls-34" points="295.09 190.7 249.11 246.39 254.39 246.39 300.23 191.13 295.09 190.7"/><polygon class="cls-34" points="226.67 190.7 180.68 246.39 185.97 246.39 231.81 191.13 226.67 190.7"/><polygon class="cls-34" points="372.81 190.7 326.82 246.39 332.11 246.39 377.95 191.13 372.81 190.7"/><polygon class="cls-34" points="309.89 190.7 263.91 246.39 269.19 246.39 315.03 191.13 309.89 190.7"/></g></g><path class="cls-71" d="M166.55,336.13s32.84,4.69,39.1,5.73,17.2-4.17,18.24-6.77-15.15-6-15.15-6L166,304.71h0a4.47,4.47,0,0,0-7.6,3.21C158.46,319.34,159.67,336.13,166.55,336.13Z"/><path class="cls-76" d="M166,304.71l4.58,16.54a10,10,0,0,0,7.79,7.17L206,333.63a2.82,2.82,0,0,0,3.11-1.67h0a2.81,2.81,0,0,0-.4-2.89l-7.88-9.65a35.88,35.88,0,0,0-18.19-11.89l-15.22-4.23A1.15,1.15,0,0,0,166,304.71Z"/><path class="cls-78" d="M179,325.35a6.94,6.94,0,0,1-5.36-4.93L170,307.26l11.84,3.29a32.52,32.52,0,0,1,16.61,10.85l7.34,9Z"/><path class="cls-34" d="M187.46,317.88a5.8,5.8,0,1,1-5.8-5.79A5.8,5.8,0,0,1,187.46,317.88Z"/><path class="cls-34" d="M196.67,322.18a4.06,4.06,0,1,1-4.06-4.05A4.06,4.06,0,0,1,196.67,322.18Z"/><path class="cls-71" d="M207.08,284.65A23.81,23.81,0,0,1,193,291.29l12.12,8.21Z"/><path class="cls-78" d="M182.88,262.78,204,275.94a2.45,2.45,0,0,1-.2,4.28l-13.13,6.57a5.57,5.57,0,0,1-3.59.46l-18.61-4a5.47,5.47,0,0,1-4.31-5l-.92-12.8a5.47,5.47,0,0,1,4.59-5.79h0A21.93,21.93,0,0,1,182.88,262.78Z"/><path class="cls-77" d="M204,275.94l-15.37-9.57a9.37,9.37,0,0,1,.79,1.42,13.81,13.81,0,0,1,.81,4.5,16,16,0,0,1-4,10.52c-1.05,1.21-2.26,2.29-3.24,3.56l4.12.88a5.57,5.57,0,0,0,3.59-.46l13.13-6.57A2.45,2.45,0,0,0,204,275.94Z"/><path class="cls-77" d="M181.19,262l.28,0a21.87,21.87,0,0,0-13.63-2.24,5.47,5.47,0,0,0-4.59,5.79l.53,7.34c0-.07.07-.15.1-.23a39.8,39.8,0,0,1,2.51-5.61,12.22,12.22,0,0,1,7.06-5C176.13,261.26,178.5,261.67,181.19,262Z"/><circle class="cls-34" cx="188.21" cy="277.97" r="5.8"/><path class="cls-72" d="M176,266.27a5.8,5.8,0,1,1-5.8-5.8A5.8,5.8,0,0,1,176,266.27Z"/><circle class="cls-34" cx="175.96" cy="272.49" r="6.81" transform="translate(-141.14 204.24) rotate(-45)"/><path class="cls-71" d="M379.37,336.13s-32.84,4.69-39.1,5.73-17.2-4.17-18.25-6.77,15.16-6,15.16-6l42.7-24.36h0a4.47,4.47,0,0,1,7.6,3.21C387.46,319.34,386.25,336.13,379.37,336.13Z"/><path class="cls-76" d="M379.88,304.71l-4.58,16.54a10,10,0,0,1-7.8,7.17l-27.61,5.21a2.83,2.83,0,0,1-3.12-1.67h0a2.83,2.83,0,0,1,.41-2.89l7.87-9.65a35.9,35.9,0,0,1,18.2-11.89l15.22-4.23A1.15,1.15,0,0,1,379.88,304.71Z"/><path class="cls-78" d="M366.92,325.35a6.91,6.91,0,0,0,5.36-4.93l3.65-13.16-11.84,3.29a32.48,32.48,0,0,0-16.61,10.85l-7.34,9Z"/><path class="cls-34" d="M358.46,317.88a5.8,5.8,0,1,0,5.79-5.79A5.8,5.8,0,0,0,358.46,317.88Z"/><path class="cls-34" d="M349.25,322.18a4.06,4.06,0,1,0,4.05-4.05A4.06,4.06,0,0,0,349.25,322.18Z"/><path class="cls-71" d="M338.84,284.65a23.8,23.8,0,0,0,14.07,6.64l-12.12,8.21Z"/><path class="cls-78" d="M363,262.78,341.9,275.94a2.46,2.46,0,0,0,.2,4.28l13.14,6.57a5.56,5.56,0,0,0,3.59.46l18.6-4a5.46,5.46,0,0,0,4.32-5l.91-12.8a5.46,5.46,0,0,0-4.59-5.79h0A21.92,21.92,0,0,0,363,262.78Z"/><path class="cls-77" d="M341.9,275.94l15.38-9.57a9.37,9.37,0,0,0-.79,1.42,13.55,13.55,0,0,0-.81,4.5,15.94,15.94,0,0,0,4,10.52c1.06,1.21,2.27,2.29,3.24,3.56l-4.11.88a5.56,5.56,0,0,1-3.59-.46l-13.14-6.57A2.46,2.46,0,0,1,341.9,275.94Z"/><path class="cls-77" d="M364.73,262l-.28,0a21.85,21.85,0,0,1,13.62-2.24,5.46,5.46,0,0,1,4.59,5.79l-.52,7.34c0-.07-.07-.15-.11-.23a37.64,37.64,0,0,0-2.51-5.61,12.19,12.19,0,0,0-7.06-5C369.78,261.26,367.41,261.67,364.73,262Z"/><circle class="cls-34" cx="357.71" cy="277.97" r="5.8"/><path class="cls-72" d="M369.93,266.27a5.8,5.8,0,1,0,5.79-5.8A5.8,5.8,0,0,0,369.93,266.27Z"/><circle class="cls-34" cx="369.95" cy="272.49" r="6.81" transform="translate(-50.61 87.44) rotate(-12.62)"/></g></g></svg>